<?xml version="1.0" encoding="utf-8"?>
<!-- Generator: Adobe Illustrator 21.0.2, SVG Export Plug-In . SVG Version: 6.00 Build 0)  -->
<svg version="1.1" xmlns="http://www.w3.org/2000/svg" xmlns:xlink="http://www.w3.org/1999/xlink" x="0px" y="0px"
	 viewBox="0 0 2355.3 706.9" style="enable-background:new 0 0 2355.3 706.9;" xml:space="preserve">
<style type="text/css">
	.st0{fill:#FFFFFF;}
	.st1{fill:#4D4D4D;}
	.st2{fill:#066CFF;}
	.st3{fill:none;stroke:#066CFF;stroke-width:25;stroke-linecap:round;stroke-miterlimit:10;}
	.st4{fill:#1A1A1A;stroke:#000000;stroke-miterlimit:10;}
	.st5{fill:#B3B3B3;}
	.st6{fill:#FFFFFF;}
	.st7{fill:none;stroke:#FFFFFF;stroke-width:25;stroke-linecap:round;stroke-miterlimit:10;}
</style>
<g id="logos">
	<g id="style1">
		<polyline class="st0" points="0.5,706.9 0.5,0.5 2354.8,0.5 2354.8,706.9 	"/>
		<g>
			<path class="st1" d="M722.3,651.8l5.6-53.7l21.3,48l21.3-48l5.6,53.7h-3.2l-4.4-41.7c0,0-19.2,43.6-19.3,43.6l-19.3-43.6
				l-4.4,41.7H722.3z"/>
			<path class="st1" d="M1060.7,625.9c0,14.9-11.1,26.7-25.5,26.7c-14.5,0-25.5-11.7-25.5-26.7s11.1-26.8,25.5-26.8
				C1049.5,599.2,1060.7,611,1060.7,625.9z M1057.3,625.9c0-13.3-9.4-23.7-22.1-23.7c-12.7,0-22.1,10.3-22.1,23.7
				c0,13.2,9.4,23.6,22.1,23.6C1047.8,649.5,1057.3,639.2,1057.3,625.9z"/>
			<path class="st1" d="M1322.2,603v48.8h-3.2V603h-12.8v-3.1h28.8v3.1H1322.2z"/>
			<path class="st1" d="M1631.6,625.9c0,14.9-11.1,26.7-25.5,26.7c-14.5,0-25.5-11.7-25.5-26.7s11.1-26.8,25.5-26.8
				C1620.5,599.2,1631.6,611,1631.6,625.9z M1628.2,625.9c0-13.3-9.4-23.7-22.1-23.7c-12.7,0-22.1,10.3-22.1,23.7
				c0,13.2,9.4,23.6,22.1,23.6C1618.8,649.5,1628.2,639.2,1628.2,625.9z"/>
			<path class="st1" d="M1903.4,651.8l-15.9-24.5h-1.5v24.5h-3.2v-51.9h7.1c3.8,0,7.2,0.3,10.4,2.6c3.8,2.8,5.1,7.1,5.1,11.1
				c0,5.1-2.1,10.4-8.3,12.6c-2.6,0.9-4.9,1-6,1l16.1,24.5H1903.4z M1886,624.1h4.7c7,0,11.2-3.9,11.2-10.6c0-5.2-2.4-7.9-4.4-9
				c-2.1-1.2-5.6-1.6-7.5-1.6h-4.1V624.1z"/>
			<path class="st1" d="M2180.3,608.7c-3-6.2-8.3-6.4-9.7-6.4c-5.8,0-9.1,4.4-9.1,9.6c0,5.6,3.7,7.5,8.6,10c4.9,2.5,7.3,3.6,9.8,5.4
				c2.1,1.6,5.2,4.3,5.2,10c0,8.7-6.9,15.2-15.3,15.2c-6.3,0-9.6-3.2-11.4-5.4c-1.9-2.3-2.7-4.4-3.2-5.7l2.8-1.4c0.7,2,1.9,4,2.7,5
				c2.2,3,5.8,4.4,9.2,4.4c6.6,0,11.9-5.1,11.9-12c0-2.8-1-5.8-4.8-8.2c-1.4-0.9-4.3-2.4-8.3-4.5c-4.9-2.5-7.3-3.9-9-6.8
				c-1.1-1.9-1.5-3.9-1.5-5.9c0-6,3.8-12.9,12.6-12.9c4.9,0,9.4,2.5,11.9,7.4L2180.3,608.7z"/>
		</g>
		<g>
			<path class="st2" d="M142.7,523.8L338,111.4c2.2-4.7,9.2-3.1,9.2,2.1c0,72.2,0,144.5,0,216.7c0,27.9-12.8,54.2-34.7,71.4
				c-54.2,42.7-108.3,85.3-162.5,128C146.1,532.8,140.5,528.4,142.7,523.8z"/>
			<path class="st2" d="M404.8,520.8c7.5-14.5,15-29.1,22.5-43.6c7.8-15.1,9.7-32.5,5.4-48.9L349,110.7
				C414.1,247.5,479.2,384.2,544.2,521c2.1,4.4-1.1,9.4-6,9.4l-127.7,0C405.7,530.5,402.5,525.2,404.8,520.8z"/>
		</g>
		<g>
			<path class="st3" d="M741.6,120.8h142.2c53,0,95.9,44.7,95.9,99.9s-42.9,99.9-95.9,99.9H741.6"/>
			<path class="st3" d="M1047.3,123h142.2c53,0,95.9,44.7,95.9,99.9s-42.9,99.9-95.9,99.9h-142.2"/>
			<path class="st3" d="M1739,132.1h-142.2c-53,0-95.9,42.2-95.9,94.2s42.9,94.2,95.9,94.2h76.1"/>
			<path class="st3" d="M1729.3,370.1c4.9,7.2,16.4,26.3,16.2,52.4c-0.2,36.3-22.8,69.6-53.5,84.5c-12.8,6.2-27.2,9.7-42.4,9.7
				l-122.5,2.2"/>
			<line class="st3" x1="1402.5" y1="126.8" x2="1402.5" y2="320.5"/>
			<line class="st3" x1="1402.5" y1="368.6" x2="1402.5" y2="519.5"/>
			<line class="st3" x1="743" y1="369.1" x2="743" y2="520"/>
			<line class="st3" x1="1048.6" y1="369.5" x2="1048.6" y2="520.3"/>
			<line class="st3" x1="1856.3" y1="369" x2="1856.3" y2="519.9"/>
			<line class="st3" x1="2166" y1="369" x2="2166" y2="519.9"/>
			<line class="st3" x1="2166" y1="122.4" x2="2166.2" y2="318.7"/>
			<line class="st3" x1="1856.2" y1="122.4" x2="1856.4" y2="318.7"/>
			<line class="st3" x1="1856.2" y1="123.4" x2="1999.4" y2="320.5"/>
			<line class="st3" x1="2165.8" y1="122.9" x2="2022.6" y2="320.1"/>
			<line class="st3" x1="2022.6" y1="320.1" x2="1999.4" y2="320.5"/>
			<line class="st3" x1="1185.9" y1="368.6" x2="1269.1" y2="516.5"/>
		</g>
	</g>
    <!--
    <path class="st2" d="M339,58"/>
    <rect x="-597.5" y="1694.4" class="st2" width="496" height="334.1"/>
    <rect x="-597.5" y="1043.6" class="st4" width="496" height="334.1"/>
    <g>
        <g>
            <path class="st1" d="M-434.5,1913l2.4-17.2h-12.1l-2.4,17.2h-2.9l2.4-17.2h-8.7l0.4-3h8.7l1.8-12.5h-8.7l0.4-3h8.7l2.4-16.3h2.9
                l-2.4,16.3h12.1l2.4-16.3h2.9l-2.4,16.3h8.7l-0.4,3h-8.7l-1.8,12.5h8.7l-0.4,3h-8.7l-2.4,17.2H-434.5z M-429.9,1880.3h-12.1
                l-1.8,12.5h12.1L-429.9,1880.3z"/>
            <path class="st1" d="M-383.2,1866.7c3.8,4.8,6.3,11.8,6.3,20.4s-2.4,15.6-6.3,20.4c-3.5,4.4-7.8,6.4-11.6,6.4
                c-3.8,0-8-1.9-11.6-6.4c-3.8-4.8-6.3-11.8-6.3-20.4s2.4-15.6,6.3-20.4c4-5.1,8.4-6.3,11.6-6.3
                C-391.6,1860.4-387.1,1861.6-383.2,1866.7z M-385.6,1905.5c3.2-4.1,5.3-10.1,5.3-18.4c0-8.3-2.1-14.2-5.3-18.4
                c-1.8-2.3-4.8-5.2-9.1-5.2c-4.4,0-7.4,2.9-9.1,5.2c-3.2,4.1-5.3,10-5.3,18.4c0,8.2,2.1,14.2,5.3,18.4c3.6,4.7,7.4,5.3,9.1,5.3
                C-393,1910.7-389.2,1910.2-385.6,1905.5z"/>
            <path class="st1" d="M-348,1862.4l-10.9,16.3c2.3-1,4.5-1.4,6.7-1.4c9.7,0,17.1,7.5,17.1,18.1c0,10.4-7.3,18.4-17.6,18.4
                c-10,0-17.4-7.6-17.4-18.4c0-5.6,2.4-9.3,3.2-10.6l16.4-24.4L-348,1862.4z M-338.5,1895.6c0-8.9-6-15.1-14.1-15.1
                c-8.2,0-14.1,6.5-14.1,15.1c0,8.7,6,15.2,14.1,15.2C-344.5,1910.7-338.5,1904.1-338.5,1895.6z"/>
            <path class="st1" d="M-307.6,1862.4l-10.9,16.3c2.3-1,4.5-1.4,6.7-1.4c9.7,0,17.1,7.5,17.1,18.1c0,10.4-7.3,18.4-17.6,18.4
                c-10,0-17.4-7.6-17.4-18.4c0-5.6,2.4-9.3,3.2-10.6l16.4-24.4L-307.6,1862.4z M-298.1,1895.6c0-8.9-6-15.1-14.1-15.1
                c-8.2,0-14.1,6.5-14.1,15.1c0,8.7,6,15.2,14.1,15.2C-304,1910.7-298.1,1904.1-298.1,1895.6z"/>
            <path class="st1" d="M-262.4,1888.7c-2-2.4-5.5-5.2-10.4-5.2c-7.4,0-12.5,6-12.5,13.8c0,9.1,6.6,13.6,12.4,13.6
                c4.8,0,8.6-3,10.9-5.7v4.2c-2,1.9-5.7,4.4-11,4.4c-9.1,0-15.4-7.1-15.4-16.5s6-16.8,15.6-16.8c2.1,0,6.3,0.4,10.4,4V1888.7z"/>
            <path class="st1" d="M-251,1884.2v28.8h-3v-28.8h-3.4v-3h3.4v-15.1c0-8.9,4.4-10.8,7.9-10.8c1.3,0,2.1,0.3,2.6,0.5v2.9
                c-0.7-0.3-1.4-0.4-2.3-0.4c-2.6,0-5.2,1.2-5.2,8.5v14.5h7.5v3H-251z"/>
            <path class="st1" d="M-233,1884.2v28.8h-3v-28.8h-3.4v-3h3.4v-15.1c0-8.9,4.4-10.8,7.9-10.8c1.3,0,2.1,0.3,2.6,0.5v2.9
                c-0.7-0.3-1.4-0.4-2.3-0.4c-2.6,0-5.2,1.2-5.2,8.5v14.5h7.5v3H-233z"/>
        </g>
    </g>
    <g>
        <g>
            <path class="st6" d="M-480.4,1213l2.4-17.2h-12.1l-2.4,17.2h-2.9l2.4-17.2h-8.7l0.4-3h8.7l1.8-12.5h-8.7l0.4-3h8.7l2.4-16.3h2.9
                l-2.4,16.3h12.1l2.4-16.3h2.9l-2.4,16.3h8.7l-0.4,3h-8.7l-1.8,12.5h8.7l-0.4,3h-8.7l-2.4,17.2H-480.4z M-475.8,1180.3h-12.1
                l-1.8,12.5h12.1L-475.8,1180.3z"/>
            <path class="st6" d="M-440.8,1164.2h-7.7l1.5-3.1h9.4v51.9h-3.2V1164.2z"/>
            <path class="st6" d="M-390.7,1181.2h2.9v31.7h-2.9v-5.7c-3,4.9-7.8,6.5-11.7,6.5c-7.9,0-14.7-6.3-14.7-16.7
                c0-9.8,5.9-16.6,14.7-16.6c4.7,0,8.8,1.9,11.7,6.2V1181.2z M-414,1196.9c0,7.2,4.2,14,11.8,14c7.5,0,11.7-6.7,11.7-14
                c0-9.4-6.6-13.4-11.7-13.4C-408.2,1183.5-414,1188.2-414,1196.9z"/>
            <path class="st6" d="M-362.4,1164.2h-7.7l1.5-3.1h9.4v51.9h-3.2V1164.2z"/>
            <path class="st6" d="M-312.2,1181.2h2.9v31.7h-2.9v-5.7c-3,4.9-7.8,6.5-11.7,6.5c-7.9,0-14.7-6.3-14.7-16.7
                c0-9.8,5.9-16.6,14.7-16.6c4.7,0,8.8,1.9,11.7,6.2V1181.2z M-335.5,1196.9c0,7.2,4.2,14,11.8,14c7.5,0,11.7-6.7,11.7-14
                c0-9.4-6.6-13.4-11.7-13.4C-329.8,1183.5-335.5,1188.2-335.5,1196.9z"/>
            <path class="st6" d="M-283.9,1164.2h-7.7l1.5-3.1h9.4v51.9h-3.2V1164.2z"/>
            <path class="st6" d="M-233.8,1181.2h2.9v31.7h-2.9v-5.7c-3,4.9-7.8,6.5-11.7,6.5c-7.9,0-14.7-6.3-14.7-16.7
                c0-9.8,5.9-16.6,14.7-16.6c4.7,0,8.8,1.9,11.7,6.2V1181.2z M-257.1,1196.9c0,7.2,4.2,14,11.8,14c7.5,0,11.7-6.7,11.7-14
                c0-9.4-6.6-13.4-11.7-13.4C-251.3,1183.5-257.1,1188.2-257.1,1196.9z"/>
        </g>
    </g>
    -->
</g>
</svg>
